<?xml version="1.0" encoding="UTF-8"?>
<svg xmlns="http://www.w3.org/2000/svg" viewBox="0 0 1500 1200" font-family="Inter, -apple-system, BlinkMacSystemFont, 'Segoe UI', system-ui, sans-serif">
  <!-- ═══════════════════════════════════════════════════════════════════
       SafeShift — AI / ML Architecture & call flows
       ═══════════════════════════════════════════════════════════════════ -->
  <defs>
    <linearGradient id="gIndigo" x1="0" y1="0" x2="1" y2="1"><stop offset="0%" stop-color="#6366F1"/><stop offset="100%" stop-color="#8B5CF6"/></linearGradient>
    <linearGradient id="gPink"   x1="0" y1="0" x2="1" y2="1"><stop offset="0%" stop-color="#EC4899"/><stop offset="100%" stop-color="#F43F5E"/></linearGradient>
    <linearGradient id="gBlue"   x1="0" y1="0" x2="1" y2="1"><stop offset="0%" stop-color="#3B82F6"/><stop offset="100%" stop-color="#06B6D4"/></linearGradient>
    <linearGradient id="gGreen"  x1="0" y1="0" x2="1" y2="1"><stop offset="0%" stop-color="#22C55E"/><stop offset="100%" stop-color="#16A34A"/></linearGradient>
    <linearGradient id="gAmber"  x1="0" y1="0" x2="1" y2="1"><stop offset="0%" stop-color="#F59E0B"/><stop offset="100%" stop-color="#F97316"/></linearGradient>
    <linearGradient id="gSky"    x1="0" y1="0" x2="1" y2="1"><stop offset="0%" stop-color="#0EA5E9"/><stop offset="100%" stop-color="#6366F1"/></linearGradient>
    <linearGradient id="gSlate"  x1="0" y1="0" x2="1" y2="1"><stop offset="0%" stop-color="#64748B"/><stop offset="100%" stop-color="#334155"/></linearGradient>
    <linearGradient id="gPurple" x1="0" y1="0" x2="1" y2="1"><stop offset="0%" stop-color="#A855F7"/><stop offset="100%" stop-color="#7C3AED"/></linearGradient>
    <linearGradient id="gTeal"   x1="0" y1="0" x2="1" y2="1"><stop offset="0%" stop-color="#14B8A6"/><stop offset="100%" stop-color="#0D9488"/></linearGradient>

    <filter id="softShadow" x="-20%" y="-20%" width="140%" height="140%">
      <feGaussianBlur stdDeviation="5" result="blur"/>
      <feOffset dy="3"/>
      <feComponentTransfer><feFuncA type="linear" slope="0.14"/></feComponentTransfer>
      <feMerge><feMergeNode/><feMergeNode in="SourceGraphic"/></feMerge>
    </filter>

    <marker id="arrow"       viewBox="0 0 10 10" refX="9" refY="5" markerWidth="7" markerHeight="7" orient="auto-start-reverse"><path d="M 0 0 L 10 5 L 0 10 z" fill="#94A3B8"/></marker>
    <marker id="arrowAmber"  viewBox="0 0 10 10" refX="9" refY="5" markerWidth="7" markerHeight="7" orient="auto-start-reverse"><path d="M 0 0 L 10 5 L 0 10 z" fill="#F59E0B"/></marker>
    <marker id="arrowBlue"   viewBox="0 0 10 10" refX="9" refY="5" markerWidth="7" markerHeight="7" orient="auto-start-reverse"><path d="M 0 0 L 10 5 L 0 10 z" fill="#3B82F6"/></marker>
    <marker id="arrowPurple" viewBox="0 0 10 10" refX="9" refY="5" markerWidth="7" markerHeight="7" orient="auto-start-reverse"><path d="M 0 0 L 10 5 L 0 10 z" fill="#A855F7"/></marker>
  </defs>

  <rect width="1500" height="1200" fill="#FAFAF9"/>

  <!-- ─────────── Title ─────────── -->
  <text x="750" y="56" text-anchor="middle" font-size="30" font-weight="800" fill="#1A1A1A" letter-spacing="-0.8">SafeShift AI / ML Architecture</text>
  <text x="750" y="86" text-anchor="middle" font-size="13" font-weight="500" fill="#6B7280">Three production flows: weather-risk pricing · driver chat · curfew classification</text>

  <!-- ═══════════════════════════════════════════════════════════════════
       LANE 1 — DYNAMIC PREMIUM (XGBoost on HF Spaces)
       ═══════════════════════════════════════════════════════════════════ -->

  <!-- lane backdrop -->
  <rect x="30" y="130" width="1440" height="300" rx="22" fill="#FFF7ED" stroke="#FED7AA"/>
  <rect x="30" y="130" width="8" height="300" rx="4" fill="url(#gAmber)"/>

  <!-- lane title chip -->
  <rect x="56" y="148" width="196" height="28" rx="14" fill="url(#gAmber)"/>
  <text x="154" y="167" text-anchor="middle" font-size="12" font-weight="800" fill="#fff" letter-spacing="0.8">FLOW 1 · DYNAMIC PREMIUM</text>
  <text x="268" y="168" font-size="11" fill="#92400E">weekly cron · Sat 05:00 IST</text>

  <!-- Node: Cron -->
  <g filter="url(#softShadow)">
    <rect x="56" y="202" width="170" height="180" rx="16" fill="#fff" stroke="#FED7AA"/>
  </g>
  <rect x="76" y="222" width="40" height="40" rx="12" fill="url(#gAmber)"/>
  <g transform="translate(96, 242)" fill="none" stroke="#fff" stroke-width="2.2" stroke-linecap="round" stroke-linejoin="round">
    <circle cx="0" cy="0" r="10"/><polyline points="0,-6 0,0 5,3"/>
  </g>
  <text x="76" y="282" font-size="14" font-weight="700" fill="#1A1A1A">Vercel cron</text>
  <text x="76" y="300" font-size="11" fill="#6B7280">/api/cron/</text>
  <text x="76" y="314" font-size="11" fill="#6B7280">weekly-premium</text>
  <rect x="76" y="326" width="130" height="20" rx="10" fill="#FEF3C7"/>
  <text x="141" y="340" text-anchor="middle" font-size="10" font-family="IBM Plex Mono, monospace" fill="#92400E">Sat 05:00 IST</text>
  <rect x="76" y="350" width="70" height="20" rx="10" fill="#FEF3C7"/>
  <text x="111" y="364" text-anchor="middle" font-size="10" font-family="IBM Plex Mono, monospace" fill="#92400E">GH Actions</text>

  <line x1="234" y1="292" x2="258" y2="292" stroke="#F59E0B" stroke-width="2.2" marker-end="url(#arrowAmber)"/>

  <!-- Node: premium-calc -->
  <g filter="url(#softShadow)">
    <rect x="266" y="202" width="200" height="180" rx="16" fill="#fff" stroke="#FED7AA"/>
  </g>
  <rect x="286" y="222" width="40" height="40" rx="12" fill="url(#gSlate)"/>
  <g transform="translate(306, 242)" fill="none" stroke="#fff" stroke-width="2.2" stroke-linecap="round" stroke-linejoin="round">
    <!-- code icon -->
    <polyline points="-8,-6 -12,0 -8,6"/>
    <polyline points="8,-6 12,0 8,6"/>
    <line x1="4" y1="-7" x2="-4" y2="7"/>
  </g>
  <text x="286" y="282" font-size="14" font-weight="700" fill="#1A1A1A">premium-calc.ts</text>
  <text x="286" y="300" font-size="11" fill="#6B7280">Orchestrates ML call,</text>
  <text x="286" y="314" font-size="11" fill="#6B7280">seasonal multipliers,</text>
  <text x="286" y="328" font-size="11" fill="#6B7280">city risk weights.</text>
  <rect x="286" y="340" width="66" height="20" rx="10" fill="#F1F5F9"/>
  <text x="319" y="354" text-anchor="middle" font-size="10" font-family="IBM Plex Mono, monospace" fill="#334155">Next.js</text>
  <rect x="356" y="340" width="90" height="20" rx="10" fill="#F1F5F9"/>
  <text x="401" y="354" text-anchor="middle" font-size="10" font-family="IBM Plex Mono, monospace" fill="#334155">lib/ml/</text>

  <line x1="474" y1="292" x2="498" y2="292" stroke="#F59E0B" stroke-width="2.2" marker-end="url(#arrowAmber)"/>
  <text x="486" y="286" font-size="9" text-anchor="middle" fill="#92400E" font-family="IBM Plex Mono, monospace">HTTP</text>

  <!-- Node: ML Service (big) -->
  <g filter="url(#softShadow)">
    <rect x="506" y="192" width="260" height="200" rx="18" fill="url(#gAmber)"/>
  </g>
  <rect x="526" y="212" width="40" height="40" rx="12" fill="rgba(255,255,255,0.22)"/>
  <g transform="translate(546, 232)" fill="none" stroke="#fff" stroke-width="2.3" stroke-linecap="round" stroke-linejoin="round">
    <!-- server / stack icon -->
    <rect x="-10" y="-10" width="20" height="6" rx="1.5"/>
    <rect x="-10" y="-2" width="20" height="6" rx="1.5"/>
    <rect x="-10" y="6" width="20" height="6" rx="1.5"/>
    <circle cx="6" cy="-7" r="0.9" fill="#fff" stroke="none"/>
    <circle cx="6" cy="1" r="0.9" fill="#fff" stroke="none"/>
    <circle cx="6" cy="9" r="0.9" fill="#fff" stroke="none"/>
  </g>
  <text x="576" y="232" font-size="16" font-weight="800" fill="#fff">ml-service</text>
  <text x="576" y="250" font-size="11" fill="rgba(255,255,255,0.9)">FastAPI · Python · port 7860</text>
  <!-- endpoints list -->
  <line x1="526" y1="272" x2="746" y2="272" stroke="rgba(255,255,255,0.25)"/>
  <text x="526" y="290" font-size="10" font-weight="700" fill="rgba(255,255,255,0.75)" letter-spacing="1">ENDPOINTS</text>
  <text x="526" y="306" font-size="11" font-family="IBM Plex Mono, monospace" fill="#fff">POST /predict/rainfall</text>
  <text x="526" y="322" font-size="11" font-family="IBM Plex Mono, monospace" fill="#fff">POST /predict/wind</text>
  <text x="526" y="338" font-size="11" font-family="IBM Plex Mono, monospace" fill="#fff">POST /predict/aqi</text>
  <text x="526" y="354" font-size="11" font-family="IBM Plex Mono, monospace" fill="#fff">POST /predict/premium</text>
  <rect x="526" y="364" width="104" height="20" rx="10" fill="rgba(255,255,255,0.2)"/>
  <text x="578" y="378" text-anchor="middle" font-size="10" font-family="IBM Plex Mono, monospace" fill="#fff">HF Spaces Docker</text>

  <line x1="774" y1="292" x2="798" y2="292" stroke="#F59E0B" stroke-width="2.2" marker-end="url(#arrowAmber)"/>

  <!-- XGBoost models -->
  <g filter="url(#softShadow)">
    <rect x="806" y="192" width="220" height="94" rx="14" fill="#fff" stroke="#FED7AA"/>
  </g>
  <rect x="826" y="212" width="36" height="36" rx="10" fill="url(#gPurple)"/>
  <g transform="translate(844, 230)" fill="none" stroke="#fff" stroke-width="2.2" stroke-linecap="round" stroke-linejoin="round">
    <!-- chart-column icon -->
    <rect x="-10" y="0" width="4" height="8" rx="1"/>
    <rect x="-3" y="-3" width="4" height="11" rx="1"/>
    <rect x="4" y="-8" width="4" height="16" rx="1"/>
  </g>
  <text x="870" y="228" font-size="13" font-weight="700" fill="#1A1A1A">rainfall_model</text>
  <text x="870" y="244" font-size="11" fill="#6B7280">XGBoost · 46 feat</text>
  <text x="870" y="258" font-size="10" font-family="IBM Plex Mono, monospace" fill="#9CA3AF">ROC-AUC 0.898</text>
  <rect x="870" y="266" width="64" height="16" rx="8" fill="#F5F3FF"/>
  <text x="902" y="277" text-anchor="middle" font-size="9" font-family="IBM Plex Mono, monospace" fill="#7C3AED">.joblib</text>

  <g filter="url(#softShadow)">
    <rect x="806" y="296" width="220" height="94" rx="14" fill="#fff" stroke="#FED7AA"/>
  </g>
  <rect x="826" y="316" width="36" height="36" rx="10" fill="url(#gPurple)"/>
  <g transform="translate(844, 334)" fill="none" stroke="#fff" stroke-width="2.2" stroke-linecap="round" stroke-linejoin="round">
    <path d="M -10 3 A 10 10 0 0 1 10 -3"/>
    <line x1="8" y1="-5" x2="10" y2="-3"/>
    <line x1="6" y1="-1" x2="10" y2="-3"/>
  </g>
  <text x="870" y="332" font-size="13" font-weight="700" fill="#1A1A1A">wind_model</text>
  <text x="870" y="348" font-size="11" fill="#6B7280">XGBoost · 54 feat</text>
  <text x="870" y="362" font-size="10" font-family="IBM Plex Mono, monospace" fill="#9CA3AF">ROC-AUC 0.892</text>
  <rect x="870" y="370" width="64" height="16" rx="8" fill="#F5F3FF"/>
  <text x="902" y="381" text-anchor="middle" font-size="9" font-family="IBM Plex Mono, monospace" fill="#7C3AED">.joblib</text>

  <line x1="1034" y1="240" x2="1058" y2="240" stroke="#F59E0B" stroke-width="2.2" stroke-dasharray="4,3"/>
  <line x1="1034" y1="344" x2="1058" y2="344" stroke="#F59E0B" stroke-width="2.2" stroke-dasharray="4,3"/>

  <!-- Open-Meteo data node (feeds models) -->
  <g filter="url(#softShadow)">
    <rect x="1066" y="220" width="180" height="144" rx="14" fill="#fff" stroke="#FED7AA"/>
  </g>
  <rect x="1086" y="240" width="36" height="36" rx="10" fill="url(#gTeal)"/>
  <g transform="translate(1104, 258)" fill="none" stroke="#fff" stroke-width="2.2" stroke-linecap="round" stroke-linejoin="round">
    <path d="M -8 -2 a 6 6 0 0 1 11 -2 a 7 7 0 1 1 2 13 h -13 a 6 6 0 0 1 0 -10"/>
  </g>
  <text x="1132" y="256" font-size="13" font-weight="700" fill="#1A1A1A">Open-Meteo</text>
  <text x="1086" y="296" font-size="10.5" fill="#6B7280">35-day lag window</text>
  <text x="1086" y="312" font-size="10.5" fill="#6B7280">+ forecast primary</text>
  <text x="1086" y="328" font-size="10.5" fill="#6B7280">+ archive fallback</text>
  <rect x="1086" y="338" width="100" height="18" rx="9" fill="#ECFDF5"/>
  <text x="1136" y="350" text-anchor="middle" font-size="10" font-family="IBM Plex Mono, monospace" fill="#047857">TTL 3600s cache</text>

  <!-- Return path back to DB -->
  <path d="M 766 392 Q 766 412 1286 412" stroke="#F59E0B" stroke-width="2" fill="none" opacity="0.55" stroke-dasharray="4,3"/>
  <polygon points="1286,412 1278,408 1278,416" fill="#F59E0B"/>

  <!-- DB target -->
  <g filter="url(#softShadow)">
    <rect x="1286" y="252" width="174" height="80" rx="14" fill="#fff" stroke="#FED7AA"/>
  </g>
  <rect x="1304" y="272" width="36" height="36" rx="10" fill="url(#gSlate)"/>
  <g transform="translate(1322, 290)" fill="none" stroke="#fff" stroke-width="2.2" stroke-linecap="round" stroke-linejoin="round">
    <ellipse cx="0" cy="-5" rx="11" ry="3.5"/>
    <path d="M -11 -5 V 5 C -11 8 11 8 11 5 V -5"/>
    <path d="M -11 0 C -11 3 11 3 11 0"/>
  </g>
  <text x="1348" y="290" font-size="13" font-weight="700" fill="#1A1A1A">Supabase</text>
  <text x="1348" y="306" font-size="10" font-family="IBM Plex Mono, monospace" fill="#6B7280">weekly_policies</text>
  <text x="1348" y="320" font-size="10" font-family="IBM Plex Mono, monospace" fill="#6B7280">final_premium_inr</text>

  <!-- ═══════════════════════════════════════════════════════════════════
       LANE 2 — DRIVER AI CHAT (OpenRouter + Web Speech)
       ═══════════════════════════════════════════════════════════════════ -->

  <rect x="30" y="458" width="1440" height="300" rx="22" fill="#EFF6FF" stroke="#BFDBFE"/>
  <rect x="30" y="458" width="8" height="300" rx="4" fill="url(#gBlue)"/>

  <rect x="56" y="476" width="196" height="28" rx="14" fill="url(#gBlue)"/>
  <text x="154" y="495" text-anchor="middle" font-size="12" font-weight="800" fill="#fff" letter-spacing="0.8">FLOW 2 · DRIVER AI CHAT</text>
  <text x="268" y="496" font-size="11" fill="#1E40AF">real-time, per user message</text>

  <!-- Node: Driver device -->
  <g filter="url(#softShadow)">
    <rect x="56" y="530" width="170" height="200" rx="16" fill="#fff" stroke="#BFDBFE"/>
  </g>
  <rect x="76" y="550" width="40" height="40" rx="12" fill="url(#gBlue)"/>
  <g transform="translate(96, 570)" fill="none" stroke="#fff" stroke-width="2.2" stroke-linecap="round" stroke-linejoin="round">
    <!-- phone icon -->
    <rect x="-6" y="-10" width="12" height="20" rx="2"/>
    <line x1="-2" y1="6" x2="2" y2="6"/>
  </g>
  <text x="76" y="610" font-size="14" font-weight="700" fill="#1A1A1A">Driver device</text>
  <text x="76" y="628" font-size="11" fill="#6B7280">Browser (Chrome/Edge)</text>
  <text x="76" y="642" font-size="11" fill="#6B7280">Voice or text input</text>
  <rect x="76" y="654" width="40" height="20" rx="10" fill="#DBEAFE"/>
  <text x="96" y="668" text-anchor="middle" font-size="10" font-family="IBM Plex Mono, monospace" fill="#1D4ED8">EN</text>
  <rect x="120" y="654" width="40" height="20" rx="10" fill="#DBEAFE"/>
  <text x="140" y="668" text-anchor="middle" font-size="10" font-family="IBM Plex Mono, monospace" fill="#1D4ED8">HI</text>
  <rect x="164" y="654" width="40" height="20" rx="10" fill="#DBEAFE"/>
  <text x="184" y="668" text-anchor="middle" font-size="10" font-family="IBM Plex Mono, monospace" fill="#1D4ED8">TE</text>
  <rect x="76" y="680" width="40" height="20" rx="10" fill="#DBEAFE"/>
  <text x="96" y="694" text-anchor="middle" font-size="10" font-family="IBM Plex Mono, monospace" fill="#1D4ED8">TA</text>
  <rect x="120" y="680" width="40" height="20" rx="10" fill="#DBEAFE"/>
  <text x="140" y="694" text-anchor="middle" font-size="10" font-family="IBM Plex Mono, monospace" fill="#1D4ED8">ML</text>

  <line x1="234" y1="620" x2="258" y2="620" stroke="#3B82F6" stroke-width="2.2" marker-end="url(#arrowBlue)"/>

  <!-- Node: Web Speech -->
  <g filter="url(#softShadow)">
    <rect x="266" y="530" width="200" height="200" rx="16" fill="#fff" stroke="#BFDBFE"/>
  </g>
  <rect x="286" y="550" width="40" height="40" rx="12" fill="url(#gSky)"/>
  <g transform="translate(306, 570)" fill="none" stroke="#fff" stroke-width="2.2" stroke-linecap="round" stroke-linejoin="round">
    <!-- mic icon -->
    <rect x="-5" y="-10" width="10" height="14" rx="5"/>
    <path d="M -8 0 A 8 8 0 0 0 8 0"/>
    <line x1="0" y1="8" x2="0" y2="12"/>
  </g>
  <text x="286" y="610" font-size="14" font-weight="700" fill="#1A1A1A">Web Speech API</text>
  <text x="286" y="628" font-size="11" fill="#6B7280">In-browser, no server.</text>
  <text x="286" y="644" font-size="11" fill="#6B7280">SpeechRecognition (STT)</text>
  <text x="286" y="658" font-size="11" fill="#6B7280">SpeechSynthesis (TTS)</text>
  <rect x="286" y="672" width="84" height="20" rx="10" fill="#DBEAFE"/>
  <text x="328" y="686" text-anchor="middle" font-size="10" font-family="IBM Plex Mono, monospace" fill="#1D4ED8">mic input</text>
  <rect x="374" y="672" width="72" height="20" rx="10" fill="#DBEAFE"/>
  <text x="410" y="686" text-anchor="middle" font-size="10" font-family="IBM Plex Mono, monospace" fill="#1D4ED8">utter out</text>
  <rect x="286" y="698" width="140" height="20" rx="10" fill="#DBEAFE"/>
  <text x="356" y="712" text-anchor="middle" font-size="10" font-family="IBM Plex Mono, monospace" fill="#1D4ED8">bcp47: hi-IN / te-IN</text>

  <line x1="474" y1="620" x2="498" y2="620" stroke="#3B82F6" stroke-width="2.2" marker-end="url(#arrowBlue)"/>
  <text x="486" y="614" font-size="9" text-anchor="middle" fill="#1E40AF" font-family="IBM Plex Mono, monospace">POST</text>

  <!-- Node: Chat API route -->
  <g filter="url(#softShadow)">
    <rect x="506" y="520" width="260" height="220" rx="18" fill="url(#gBlue)"/>
  </g>
  <rect x="526" y="540" width="40" height="40" rx="12" fill="rgba(255,255,255,0.22)"/>
  <g transform="translate(546, 560)" fill="none" stroke="#fff" stroke-width="2.3" stroke-linecap="round" stroke-linejoin="round">
    <!-- server -->
    <rect x="-10" y="-8" width="20" height="6" rx="1.5"/>
    <rect x="-10" y="2" width="20" height="6" rx="1.5"/>
    <circle cx="6" cy="-5" r="0.9" fill="#fff" stroke="none"/>
    <circle cx="6" cy="5" r="0.9" fill="#fff" stroke="none"/>
  </g>
  <text x="576" y="560" font-size="16" font-weight="800" fill="#fff">/api/driver/chat</text>
  <text x="576" y="578" font-size="11" fill="rgba(255,255,255,0.9)">Next.js Route Handler</text>
  <line x1="526" y1="596" x2="746" y2="596" stroke="rgba(255,255,255,0.25)"/>
  <text x="526" y="614" font-size="10" font-weight="700" fill="rgba(255,255,255,0.75)" letter-spacing="1">BUILDS CONTEXT (6 parallel SELECTs)</text>
  <text x="526" y="632" font-size="11" font-family="IBM Plex Mono, monospace" fill="#fff">profiles · weekly_policies</text>
  <text x="526" y="648" font-size="11" font-family="IBM Plex Mono, monospace" fill="#fff">driver_wallet · coin_balance</text>
  <text x="526" y="664" font-size="11" font-family="IBM Plex Mono, monospace" fill="#fff">parametric_claims (5)</text>
  <text x="526" y="680" font-size="11" font-family="IBM Plex Mono, monospace" fill="#fff">live_disruption_events (5)</text>
  <rect x="526" y="694" width="88" height="20" rx="10" fill="rgba(255,255,255,0.2)"/>
  <text x="570" y="708" text-anchor="middle" font-size="10" font-family="IBM Plex Mono, monospace" fill="#fff">Promise.all</text>
  <rect x="622" y="694" width="116" height="20" rx="10" fill="rgba(255,255,255,0.2)"/>
  <text x="680" y="708" text-anchor="middle" font-size="10" font-family="IBM Plex Mono, monospace" fill="#fff">~100ms latency</text>

  <!-- arrow DB side -->
  <line x1="636" y1="748" x2="636" y2="770" stroke="#3B82F6" stroke-width="2" stroke-dasharray="4,3"/>

  <!-- arrow to LLM -->
  <line x1="774" y1="620" x2="798" y2="620" stroke="#3B82F6" stroke-width="2.2" marker-end="url(#arrowBlue)"/>

  <!-- Node: OpenRouter LLM -->
  <g filter="url(#softShadow)">
    <rect x="806" y="520" width="230" height="220" rx="18" fill="url(#gPurple)"/>
  </g>
  <rect x="826" y="540" width="40" height="40" rx="12" fill="rgba(255,255,255,0.22)"/>
  <g transform="translate(846, 560)" fill="none" stroke="#fff" stroke-width="2.3" stroke-linecap="round" stroke-linejoin="round">
    <!-- brain icon -->
    <path d="M -5 -9 a 6 6 0 0 0 -6 6 a 5 5 0 0 0 2 8 a 5 5 0 0 0 4 5 a 5 5 0 0 0 5 -3"/>
    <path d="M 5 -9 a 6 6 0 0 1 6 6 a 5 5 0 0 1 -2 8 a 5 5 0 0 1 -4 5 a 5 5 0 0 1 -5 -3"/>
    <line x1="0" y1="-8" x2="0" y2="9"/>
  </g>
  <text x="876" y="562" font-size="15" font-weight="800" fill="#fff">OpenRouter LLM</text>
  <text x="876" y="578" font-size="11" fill="rgba(255,255,255,0.88)">Chat completion</text>
  <line x1="826" y1="596" x2="1016" y2="596" stroke="rgba(255,255,255,0.25)"/>
  <text x="826" y="614" font-size="10" font-weight="700" fill="rgba(255,255,255,0.75)" letter-spacing="1">CONFIG</text>
  <text x="826" y="632" font-size="11" font-family="IBM Plex Mono, monospace" fill="#fff">model: gpt-oss-20b:free</text>
  <text x="826" y="648" font-size="11" font-family="IBM Plex Mono, monospace" fill="#fff">temp: 0.4</text>
  <text x="826" y="664" font-size="11" font-family="IBM Plex Mono, monospace" fill="#fff">max_tokens: 300</text>
  <rect x="826" y="676" width="180" height="20" rx="10" fill="rgba(255,255,255,0.2)"/>
  <text x="916" y="690" text-anchor="middle" font-size="10" font-family="IBM Plex Mono, monospace" fill="#fff">anti-injection system prompt</text>
  <rect x="826" y="702" width="100" height="20" rx="10" fill="rgba(255,255,255,0.2)"/>
  <text x="876" y="716" text-anchor="middle" font-size="10" font-family="IBM Plex Mono, monospace" fill="#fff">stateless</text>

  <line x1="1044" y1="620" x2="1068" y2="620" stroke="#3B82F6" stroke-width="2.2" marker-end="url(#arrowBlue)"/>
  <text x="1056" y="614" font-size="9" text-anchor="middle" fill="#1E40AF" font-family="IBM Plex Mono, monospace">answer</text>

  <!-- Node: Back to driver -->
  <g filter="url(#softShadow)">
    <rect x="1076" y="530" width="200" height="200" rx="16" fill="#fff" stroke="#BFDBFE"/>
  </g>
  <rect x="1096" y="550" width="40" height="40" rx="12" fill="url(#gSky)"/>
  <g transform="translate(1116, 570)" fill="none" stroke="#fff" stroke-width="2.2" stroke-linecap="round" stroke-linejoin="round">
    <!-- speaker icon -->
    <path d="M -8 -5 L -3 -5 L 4 -10 V 10 L -3 5 L -8 5 Z"/>
    <path d="M 8 -5 a 7 7 0 0 1 0 10"/>
  </g>
  <text x="1096" y="610" font-size="14" font-weight="700" fill="#1A1A1A">Response path</text>
  <text x="1096" y="628" font-size="11" fill="#6B7280">Markdown stripped</text>
  <text x="1096" y="644" font-size="11" fill="#6B7280">then SpeechSynthesis</text>
  <text x="1096" y="658" font-size="11" fill="#6B7280">speaks + UI renders</text>
  <rect x="1096" y="670" width="90" height="20" rx="10" fill="#DBEAFE"/>
  <text x="1141" y="684" text-anchor="middle" font-size="10" font-family="IBM Plex Mono, monospace" fill="#1D4ED8">speaker out</text>
  <rect x="1096" y="696" width="108" height="20" rx="10" fill="#DBEAFE"/>
  <text x="1150" y="710" text-anchor="middle" font-size="10" font-family="IBM Plex Mono, monospace" fill="#1D4ED8">i18n dictionary</text>

  <!-- Supabase subnote for chat context -->
  <g filter="url(#softShadow)">
    <rect x="476" y="694" width="320" height="56" rx="14" fill="#F8FAFC" stroke="#E2E8F0" stroke-dasharray="4,3"/>
  </g>
  <g transform="translate(500, 722)" fill="none" stroke="#64748B" stroke-width="1.9" stroke-linecap="round" stroke-linejoin="round">
    <ellipse cx="0" cy="-4" rx="10" ry="3.2"/>
    <path d="M -10 -4 V 4 C -10 7 10 7 10 4 V -4"/>
    <path d="M -10 0 C -10 3 10 3 10 0"/>
  </g>
  <text x="524" y="716" font-size="12" font-weight="600" fill="#1A1A1A">Supabase Postgres</text>
  <text x="524" y="732" font-size="10" font-family="IBM Plex Mono, monospace" fill="#6B7280">6 tables read in parallel · row-level security</text>
  <text x="524" y="744" font-size="10" font-family="IBM Plex Mono, monospace" fill="#9CA3AF">(same instance used by fraud + premium flows)</text>

  <!-- ═══════════════════════════════════════════════════════════════════
       LANE 3 — CURFEW / BANDH CLASSIFICATION
       ═══════════════════════════════════════════════════════════════════ -->

  <rect x="30" y="786" width="1440" height="240" rx="22" fill="#FAF5FF" stroke="#E9D5FF"/>
  <rect x="30" y="786" width="8" height="240" rx="4" fill="url(#gPurple)"/>

  <rect x="56" y="804" width="244" height="28" rx="14" fill="url(#gPurple)"/>
  <text x="178" y="823" text-anchor="middle" font-size="12" font-weight="800" fill="#fff" letter-spacing="0.8">FLOW 3 · NEWS CLASSIFICATION</text>
  <text x="316" y="824" font-size="11" fill="#6B21A8">adjudicator cron · every 15 min</text>

  <!-- Node: Cron -->
  <g filter="url(#softShadow)">
    <rect x="56" y="854" width="150" height="152" rx="14" fill="#fff" stroke="#E9D5FF"/>
  </g>
  <rect x="76" y="872" width="36" height="36" rx="10" fill="url(#gPurple)"/>
  <g transform="translate(94, 890)" fill="none" stroke="#fff" stroke-width="2.1" stroke-linecap="round" stroke-linejoin="round">
    <circle cx="0" cy="0" r="9"/><polyline points="0,-5 0,0 4,3"/>
  </g>
  <text x="76" y="928" font-size="13" font-weight="700" fill="#1A1A1A">Cron (15 min)</text>
  <text x="76" y="944" font-size="10.5" fill="#6B7280">/api/cron/</text>
  <text x="76" y="958" font-size="10.5" fill="#6B7280">adjudicator</text>
  <rect x="76" y="970" width="108" height="20" rx="10" fill="#F5F3FF"/>
  <text x="130" y="984" text-anchor="middle" font-size="10" font-family="IBM Plex Mono, monospace" fill="#6B21A8">GH Actions cron</text>

  <line x1="214" y1="930" x2="238" y2="930" stroke="#A855F7" stroke-width="2.2" marker-end="url(#arrowPurple)"/>

  <!-- Node: curfew-bandh trigger -->
  <g filter="url(#softShadow)">
    <rect x="246" y="854" width="180" height="152" rx="14" fill="#fff" stroke="#E9D5FF"/>
  </g>
  <rect x="266" y="872" width="36" height="36" rx="10" fill="url(#gSlate)"/>
  <g transform="translate(284, 890)" fill="none" stroke="#fff" stroke-width="2.1" stroke-linecap="round" stroke-linejoin="round">
    <!-- filter / funnel icon -->
    <path d="M -10 -8 L 10 -8 L 4 0 L 4 8 L -4 8 L -4 0 Z"/>
  </g>
  <text x="266" y="928" font-size="13" font-weight="700" fill="#1A1A1A">curfew-bandh</text>
  <text x="266" y="944" font-size="10.5" fill="#6B7280">trigger module</text>
  <text x="266" y="958" font-size="10.5" fill="#6B7280">per city iteration</text>
  <rect x="266" y="970" width="140" height="20" rx="10" fill="#F5F3FF"/>
  <text x="336" y="984" text-anchor="middle" font-size="10" font-family="IBM Plex Mono, monospace" fill="#6B21A8">checkCurfewBandhTrigger</text>

  <line x1="434" y1="930" x2="458" y2="930" stroke="#A855F7" stroke-width="2.2" marker-end="url(#arrowPurple)"/>

  <!-- Node: NewsData -->
  <g filter="url(#softShadow)">
    <rect x="466" y="854" width="180" height="152" rx="14" fill="#fff" stroke="#E9D5FF"/>
  </g>
  <rect x="486" y="872" width="36" height="36" rx="10" fill="url(#gTeal)"/>
  <g transform="translate(504, 890)" fill="none" stroke="#fff" stroke-width="2.1" stroke-linecap="round" stroke-linejoin="round">
    <!-- newspaper icon -->
    <rect x="-10" y="-8" width="20" height="16" rx="1.5"/>
    <line x1="-6" y1="-4" x2="4" y2="-4"/>
    <line x1="-6" y1="0" x2="4" y2="0"/>
    <line x1="-6" y1="4" x2="2" y2="4"/>
  </g>
  <text x="486" y="928" font-size="13" font-weight="700" fill="#1A1A1A">NewsData.io</text>
  <text x="486" y="944" font-size="10.5" fill="#6B7280">up to 5 headlines</text>
  <text x="486" y="958" font-size="10.5" fill="#6B7280">for target city</text>
  <rect x="486" y="970" width="108" height="20" rx="10" fill="#ECFDF5"/>
  <text x="540" y="984" text-anchor="middle" font-size="10" font-family="IBM Plex Mono, monospace" fill="#047857">IN · EN+HI</text>

  <line x1="654" y1="930" x2="678" y2="930" stroke="#A855F7" stroke-width="2.2" marker-end="url(#arrowPurple)"/>
  <text x="666" y="924" font-size="9" text-anchor="middle" fill="#6B21A8" font-family="IBM Plex Mono, monospace">headlines</text>

  <!-- Node: OpenRouter classifier -->
  <g filter="url(#softShadow)">
    <rect x="686" y="844" width="280" height="172" rx="16" fill="url(#gPurple)"/>
  </g>
  <rect x="706" y="862" width="36" height="36" rx="10" fill="rgba(255,255,255,0.22)"/>
  <g transform="translate(724, 880)" fill="none" stroke="#fff" stroke-width="2.1" stroke-linecap="round" stroke-linejoin="round">
    <path d="M -5 -8 a 5 5 0 0 0 -5 5 a 4 4 0 0 0 1.5 6.5 a 4 4 0 0 0 3.5 4 a 4 4 0 0 0 4 -2.5"/>
    <path d="M 5 -8 a 5 5 0 0 1 5 5 a 4 4 0 0 1 -1.5 6.5 a 4 4 0 0 1 -3.5 4 a 4 4 0 0 1 -4 -2.5"/>
    <line x1="0" y1="-7" x2="0" y2="7"/>
  </g>
  <text x="750" y="880" font-size="15" font-weight="800" fill="#fff">OpenRouter classify</text>
  <text x="750" y="896" font-size="11" fill="rgba(255,255,255,0.88)">Zero-shot JSON classifier</text>
  <line x1="706" y1="912" x2="946" y2="912" stroke="rgba(255,255,255,0.25)"/>
  <text x="706" y="928" font-size="10" font-weight="700" fill="rgba(255,255,255,0.75)" letter-spacing="1">OUTPUT SCHEMA</text>
  <text x="706" y="944" font-size="11" font-family="IBM Plex Mono, monospace" fill="#fff">{ is_disruption, severity 0–10,</text>
  <text x="706" y="960" font-size="11" font-family="IBM Plex Mono, monospace" fill="#fff">  estimated_hours, affected_city }</text>
  <rect x="706" y="972" width="86" height="20" rx="10" fill="rgba(255,255,255,0.2)"/>
  <text x="749" y="986" text-anchor="middle" font-size="10" font-family="IBM Plex Mono, monospace" fill="#fff">temp 0.3</text>
  <rect x="796" y="972" width="140" height="20" rx="10" fill="rgba(255,255,255,0.2)"/>
  <text x="866" y="986" text-anchor="middle" font-size="10" font-family="IBM Plex Mono, monospace" fill="#fff">sev ≥ 6 · hrs ≥ 4</text>

  <line x1="974" y1="930" x2="998" y2="930" stroke="#A855F7" stroke-width="2.2" marker-end="url(#arrowPurple)"/>

  <!-- Node: Trigger accepted → DB -->
  <g filter="url(#softShadow)">
    <rect x="1006" y="854" width="220" height="152" rx="14" fill="#fff" stroke="#E9D5FF"/>
  </g>
  <rect x="1026" y="872" width="36" height="36" rx="10" fill="url(#gGreen)"/>
  <g transform="translate(1044, 890)" fill="none" stroke="#fff" stroke-width="2.1" stroke-linecap="round" stroke-linejoin="round">
    <circle cx="0" cy="0" r="10"/><polyline points="-4,0 -1,3 5,-3"/>
  </g>
  <text x="1026" y="928" font-size="13" font-weight="700" fill="#1A1A1A">Accept trigger</text>
  <text x="1026" y="944" font-size="10.5" fill="#6B7280">Creates disruption event</text>
  <text x="1026" y="958" font-size="10.5" fill="#6B7280">→ claims fan-out</text>
  <rect x="1026" y="970" width="150" height="20" rx="10" fill="#F1F5F9"/>
  <text x="1101" y="984" text-anchor="middle" font-size="10" font-family="IBM Plex Mono, monospace" fill="#334155">live_disruption_events</text>

  <!-- Supabase box + note -->
  <g filter="url(#softShadow)">
    <rect x="1246" y="854" width="210" height="152" rx="14" fill="#fff" stroke="#E9D5FF"/>
  </g>
  <rect x="1266" y="872" width="36" height="36" rx="10" fill="url(#gSlate)"/>
  <g transform="translate(1284, 890)" fill="none" stroke="#fff" stroke-width="2.1" stroke-linecap="round" stroke-linejoin="round">
    <ellipse cx="0" cy="-5" rx="11" ry="3.5"/>
    <path d="M -11 -5 V 5 C -11 8 11 8 11 5 V -5"/>
    <path d="M -11 0 C -11 3 11 3 11 0"/>
  </g>
  <text x="1266" y="928" font-size="13" font-weight="700" fill="#1A1A1A">Supabase</text>
  <text x="1266" y="944" font-size="10.5" fill="#6B7280">Persists event +</text>
  <text x="1266" y="958" font-size="10.5" fill="#6B7280">data_sources tag</text>
  <rect x="1266" y="970" width="172" height="20" rx="10" fill="#F5F3FF"/>
  <text x="1352" y="984" text-anchor="middle" font-size="10" font-family="IBM Plex Mono, monospace" fill="#6B21A8">[&apos;newsdata&apos;, &apos;openrouter-llm&apos;]</text>

  <line x1="1234" y1="930" x2="1246" y2="930" stroke="#A855F7" stroke-width="2" stroke-dasharray="4,3"/>

  <!-- ═══════════════════════════════════════════════════════════════════
       FOOTER: What's NOT AI + stack summary
       ═══════════════════════════════════════════════════════════════════ -->

  <g filter="url(#softShadow)">
    <rect x="30" y="1056" width="1440" height="120" rx="18" fill="#fff" stroke="#E8E8EA"/>
  </g>

  <!-- column A -->
  <text x="52" y="1084" font-size="10" font-weight="700" fill="#9CA3AF" letter-spacing="1.5">MODELS &amp; PROVIDERS</text>
  <rect x="52" y="1094" width="160" height="22" rx="11" fill="#F5F3FF"/>
  <text x="132" y="1109" text-anchor="middle" font-size="10.5" font-family="IBM Plex Mono, monospace" fill="#7C3AED">XGBoost rainfall 0.898</text>
  <rect x="218" y="1094" width="144" height="22" rx="11" fill="#F5F3FF"/>
  <text x="290" y="1109" text-anchor="middle" font-size="10.5" font-family="IBM Plex Mono, monospace" fill="#7C3AED">XGBoost wind 0.892</text>
  <rect x="52" y="1122" width="220" height="22" rx="11" fill="#FAF5FF"/>
  <text x="162" y="1137" text-anchor="middle" font-size="10.5" font-family="IBM Plex Mono, monospace" fill="#6B21A8">OpenRouter · gpt-oss-20b:free</text>
  <rect x="278" y="1122" width="128" height="22" rx="11" fill="#EFF6FF"/>
  <text x="342" y="1137" text-anchor="middle" font-size="10.5" font-family="IBM Plex Mono, monospace" fill="#1D4ED8">Web Speech API</text>

  <line x1="440" y1="1076" x2="440" y2="1156" stroke="#F3F4F6"/>

  <!-- column B -->
  <text x="464" y="1084" font-size="10" font-weight="700" fill="#9CA3AF" letter-spacing="1.5">RUNTIMES</text>
  <text x="464" y="1108" font-size="12" font-weight="600" fill="#1A1A1A">Vercel (Next.js 16)</text>
  <text x="464" y="1124" font-size="10.5" font-family="IBM Plex Mono, monospace" fill="#6B7280">Route handlers · cron · lib/*</text>
  <text x="464" y="1142" font-size="12" font-weight="600" fill="#1A1A1A">HF Spaces (Docker)</text>
  <text x="464" y="1156" font-size="10.5" font-family="IBM Plex Mono, monospace" fill="#6B7280">ml-service FastAPI · port 7860</text>

  <line x1="780" y1="1076" x2="780" y2="1156" stroke="#F3F4F6"/>

  <!-- column C: external -->
  <text x="804" y="1084" font-size="10" font-weight="700" fill="#9CA3AF" letter-spacing="1.5">DATA SOURCES</text>
  <rect x="804" y="1094" width="100" height="22" rx="11" fill="#ECFDF5"/>
  <text x="854" y="1109" text-anchor="middle" font-size="10.5" font-family="IBM Plex Mono, monospace" fill="#047857">Open-Meteo</text>
  <rect x="910" y="1094" width="66" height="22" rx="11" fill="#ECFDF5"/>
  <text x="943" y="1109" text-anchor="middle" font-size="10.5" font-family="IBM Plex Mono, monospace" fill="#047857">WAQI</text>
  <rect x="982" y="1094" width="124" height="22" rx="11" fill="#ECFDF5"/>
  <text x="1044" y="1109" text-anchor="middle" font-size="10.5" font-family="IBM Plex Mono, monospace" fill="#047857">OpenWeatherMap</text>
  <rect x="804" y="1122" width="86" height="22" rx="11" fill="#ECFDF5"/>
  <text x="847" y="1137" text-anchor="middle" font-size="10.5" font-family="IBM Plex Mono, monospace" fill="#047857">NewsData</text>
  <rect x="896" y="1122" width="96" height="22" rx="11" fill="#ECFDF5"/>
  <text x="944" y="1137" text-anchor="middle" font-size="10.5" font-family="IBM Plex Mono, monospace" fill="#047857">StatusGator</text>
  <rect x="998" y="1122" width="82" height="22" rx="11" fill="#ECFDF5"/>
  <text x="1039" y="1137" text-anchor="middle" font-size="10.5" font-family="IBM Plex Mono, monospace" fill="#047857">ip-api.com</text>

  <line x1="1120" y1="1076" x2="1120" y2="1156" stroke="#F3F4F6"/>

  <!-- column D: NOT AI -->
  <text x="1144" y="1084" font-size="10" font-weight="700" fill="#9CA3AF" letter-spacing="1.5">NOT AI/ML (CLARIFICATION)</text>
  <text x="1144" y="1106" font-size="11" fill="#6B7280">i18n — static dictionary, 5 langs</text>
  <text x="1144" y="1122" font-size="11" fill="#6B7280">Fraud score — weighted rules</text>
  <text x="1144" y="1138" font-size="11" fill="#6B7280">Rewards — deterministic rules</text>
  <text x="1144" y="1154" font-size="10.5" font-style="italic" fill="#9CA3AF">see docs/fraud-detection.md</text>
</svg>
