<?xml version="1.0" encoding="UTF-8"?>
<svg xmlns="http://www.w3.org/2000/svg" viewBox="0 0 1500 1000" font-family="Inter, -apple-system, BlinkMacSystemFont, 'Segoe UI', system-ui, sans-serif">
  <!-- ═══════════════════════════════════════════════════════════════════
       SafeShift Fraud Detection Pipeline — architecture with real stack
       ═══════════════════════════════════════════════════════════════════ -->
  <defs>
    <linearGradient id="gIndigo" x1="0" y1="0" x2="1" y2="1"><stop offset="0%" stop-color="#6366F1"/><stop offset="100%" stop-color="#8B5CF6"/></linearGradient>
    <linearGradient id="gPink"   x1="0" y1="0" x2="1" y2="1"><stop offset="0%" stop-color="#EC4899"/><stop offset="100%" stop-color="#F43F5E"/></linearGradient>
    <linearGradient id="gBlue"   x1="0" y1="0" x2="1" y2="1"><stop offset="0%" stop-color="#3B82F6"/><stop offset="100%" stop-color="#06B6D4"/></linearGradient>
    <linearGradient id="gGreen"  x1="0" y1="0" x2="1" y2="1"><stop offset="0%" stop-color="#22C55E"/><stop offset="100%" stop-color="#16A34A"/></linearGradient>
    <linearGradient id="gAmber"  x1="0" y1="0" x2="1" y2="1"><stop offset="0%" stop-color="#F59E0B"/><stop offset="100%" stop-color="#F97316"/></linearGradient>
    <linearGradient id="gRed"    x1="0" y1="0" x2="1" y2="1"><stop offset="0%" stop-color="#EF4444"/><stop offset="100%" stop-color="#DC2626"/></linearGradient>
    <linearGradient id="gSky"    x1="0" y1="0" x2="1" y2="1"><stop offset="0%" stop-color="#0EA5E9"/><stop offset="100%" stop-color="#6366F1"/></linearGradient>
    <linearGradient id="gSlate"  x1="0" y1="0" x2="1" y2="1"><stop offset="0%" stop-color="#64748B"/><stop offset="100%" stop-color="#334155"/></linearGradient>

    <filter id="softShadow" x="-20%" y="-20%" width="140%" height="140%">
      <feGaussianBlur stdDeviation="5" result="blur"/>
      <feOffset dy="3"/>
      <feComponentTransfer><feFuncA type="linear" slope="0.14"/></feComponentTransfer>
      <feMerge><feMergeNode/><feMergeNode in="SourceGraphic"/></feMerge>
    </filter>

    <marker id="arrow" viewBox="0 0 10 10" refX="9" refY="5" markerWidth="7" markerHeight="7" orient="auto-start-reverse">
      <path d="M 0 0 L 10 5 L 0 10 z" fill="#94A3B8"/>
    </marker>
    <marker id="arrowIndigo" viewBox="0 0 10 10" refX="9" refY="5" markerWidth="7" markerHeight="7" orient="auto-start-reverse">
      <path d="M 0 0 L 10 5 L 0 10 z" fill="#8B5CF6"/>
    </marker>

    <!-- Reusable tech-chip. Usage: <use href="#techChip" x=".." y=".." /> via g.id -->
  </defs>

  <!-- Background -->
  <rect width="1500" height="1000" fill="#FAFAF9"/>

  <!-- ────────────────── Title ────────────────── -->
  <text x="750" y="60" text-anchor="middle" font-size="30" font-weight="800" fill="#1A1A1A" letter-spacing="-0.8">
    SafeShift Fraud Detection Pipeline
  </text>
  <text x="750" y="90" text-anchor="middle" font-size="13" font-weight="500" fill="#6B7280">
    Only what a driver or ring can actually control is scored
  </text>

  <!-- ═══════════════════════════════════════════════════════════════════
       TOP ROW: Pipeline — Trigger → Gate 1 → Gate 2 → Scoring → Routing
       ═══════════════════════════════════════════════════════════════════ -->

  <!-- ───── 1. TRIGGER ───── -->
  <g filter="url(#softShadow)">
    <rect x="40" y="150" width="200" height="180" rx="18" fill="url(#gSky)"/>
  </g>
  <g transform="translate(80, 190)" fill="none" stroke="#fff" stroke-width="2.3" stroke-linecap="round" stroke-linejoin="round">
    <!-- cloud-rain -->
    <path d="M -16 -2 a 9 9 0 0 1 17 -3 a 11 11 0 1 1 3 19 h -20 a 9 9 0 0 1 0 -16"/>
    <line x1="-10" y1="20" x2="-12" y2="25"/>
    <line x1="-2" y1="20" x2="-4" y2="25"/>
    <line x1="6" y1="20" x2="4" y2="25"/>
  </g>
  <text x="60" y="248" font-size="15" font-weight="700" fill="#fff">Disruption</text>
  <text x="60" y="266" font-size="11" fill="rgba(255,255,255,0.85)">Rain · AQI · Cyclone</text>
  <text x="60" y="280" font-size="11" fill="rgba(255,255,255,0.85)">Outage · Curfew</text>
  <!-- tech chips -->
  <rect x="60" y="296" width="76" height="20" rx="10" fill="rgba(255,255,255,0.18)"/>
  <text x="98" y="310" text-anchor="middle" font-size="10" font-family="IBM Plex Mono, monospace" fill="#fff">cron 15m</text>
  <rect x="142" y="296" width="74" height="20" rx="10" fill="rgba(255,255,255,0.18)"/>
  <text x="179" y="310" text-anchor="middle" font-size="10" font-family="IBM Plex Mono, monospace" fill="#fff">Vercel</text>

  <!-- Arrow -->
  <line x1="248" y1="240" x2="264" y2="240" stroke="#94A3B8" stroke-width="2" marker-end="url(#arrow)"/>

  <!-- ───── 2. GATE 1 ───── -->
  <g filter="url(#softShadow)">
    <rect x="272" y="150" width="220" height="180" rx="18" fill="#fff" stroke="#E8E8EA"/>
    <rect x="272" y="150" width="220" height="5" rx="2.5" fill="url(#gIndigo)"/>
  </g>
  <g transform="translate(306, 194)" fill="none" stroke="#6366F1" stroke-width="2.3" stroke-linecap="round" stroke-linejoin="round">
    <path d="M 0 -14 L -12 -9 V 2 C -12 11 -6 17 0 20 C 6 17 12 11 12 2 V -9 Z"/>
    <polyline points="-5,2 -1,6 6,-3"/>
  </g>
  <text x="292" y="252" font-size="15" font-weight="700" fill="#1A1A1A">Gate 1 — env</text>
  <text x="292" y="270" font-size="11" fill="#6B7280">Disruption verified</text>
  <text x="292" y="284" font-size="11" fill="#6B7280">by external APIs</text>
  <!-- tech chips -->
  <rect x="292" y="296" width="92" height="20" rx="10" fill="#EEF2FF"/>
  <text x="338" y="310" text-anchor="middle" font-size="10" font-family="IBM Plex Mono, monospace" fill="#4F46E5">OpenWeather</text>
  <rect x="390" y="296" width="44" height="20" rx="10" fill="#EEF2FF"/>
  <text x="412" y="310" text-anchor="middle" font-size="10" font-family="IBM Plex Mono, monospace" fill="#4F46E5">WAQI</text>
  <rect x="440" y="296" width="42" height="20" rx="10" fill="#EEF2FF"/>
  <text x="461" y="310" text-anchor="middle" font-size="10" font-family="IBM Plex Mono, monospace" fill="#4F46E5">+3</text>

  <!-- Arrow -->
  <line x1="500" y1="240" x2="516" y2="240" stroke="#94A3B8" stroke-width="2" marker-end="url(#arrow)"/>

  <!-- ───── 3. GATE 2 ───── -->
  <g filter="url(#softShadow)">
    <rect x="524" y="150" width="220" height="180" rx="18" fill="#fff" stroke="#E8E8EA"/>
    <rect x="524" y="150" width="220" height="5" rx="2.5" fill="url(#gBlue)"/>
  </g>
  <g transform="translate(560, 200)" fill="none" stroke="#3B82F6" stroke-width="2.3" stroke-linecap="round" stroke-linejoin="round">
    <!-- activity pulse -->
    <polyline points="-16,0 -8,0 -4,-10 4,10 8,0 16,0"/>
  </g>
  <text x="544" y="252" font-size="15" font-weight="700" fill="#1A1A1A">Gate 2 — activity</text>
  <text x="544" y="270" font-size="11" fill="#6B7280">Driver online 45 min+</text>
  <text x="544" y="284" font-size="11" fill="#6B7280">GPS inside zone</text>
  <rect x="544" y="296" width="108" height="20" rx="10" fill="#ECFEFF"/>
  <text x="598" y="310" text-anchor="middle" font-size="10" font-family="IBM Plex Mono, monospace" fill="#0E7490">activity_logs</text>
  <rect x="658" y="296" width="78" height="20" rx="10" fill="#ECFEFF"/>
  <text x="697" y="310" text-anchor="middle" font-size="10" font-family="IBM Plex Mono, monospace" fill="#0E7490">haversine</text>

  <!-- Arrow -->
  <line x1="752" y1="240" x2="768" y2="240" stroke="#94A3B8" stroke-width="2" marker-end="url(#arrow)"/>

  <!-- ───── 4. SCORING ENGINE ───── -->
  <g filter="url(#softShadow)">
    <rect x="776" y="140" width="220" height="200" rx="20" fill="url(#gIndigo)"/>
  </g>
  <g transform="translate(810, 194)" fill="none" stroke="#fff" stroke-width="2.4" stroke-linecap="round" stroke-linejoin="round">
    <!-- gauge -->
    <path d="M -20 12 A 20 20 0 0 1 20 12"/>
    <line x1="0" y1="12" x2="11" y2="-1"/>
    <circle cx="0" cy="12" r="2.5" fill="#fff" stroke="none"/>
  </g>
  <text x="796" y="258" font-size="16" font-weight="800" fill="#fff">Scoring Engine</text>
  <text x="796" y="276" font-size="11" fill="rgba(255,255,255,0.85)">weighted sum of 3 signals</text>
  <text x="796" y="290" font-size="11" fill="rgba(255,255,255,0.85)">severity × weight, clamped</text>
  <rect x="796" y="302" width="88" height="20" rx="10" fill="rgba(255,255,255,0.20)"/>
  <text x="840" y="316" text-anchor="middle" font-size="10" font-family="IBM Plex Mono, monospace" fill="#fff">scoring.ts</text>
  <rect x="890" y="302" width="80" height="20" rx="10" fill="rgba(255,255,255,0.20)"/>
  <text x="930" y="316" text-anchor="middle" font-size="10" font-family="IBM Plex Mono, monospace" fill="#fff">pure · no DB</text>

  <!-- Arrow -->
  <line x1="1004" y1="240" x2="1020" y2="240" stroke="#94A3B8" stroke-width="2" marker-end="url(#arrow)"/>

  <!-- ───── 5. ROUTING ───── -->
  <g filter="url(#softShadow)">
    <rect x="1028" y="150" width="200" height="180" rx="18" fill="#fff" stroke="#E8E8EA"/>
    <rect x="1028" y="150" width="200" height="5" rx="2.5" fill="url(#gSlate)"/>
  </g>
  <g transform="translate(1064, 194)" fill="none" stroke="#334155" stroke-width="2.3" stroke-linecap="round" stroke-linejoin="round">
    <!-- git-branch -->
    <circle cx="-12" cy="-10" r="3"/>
    <circle cx="-12" cy="10" r="3"/>
    <circle cx="12" cy="-10" r="3"/>
    <line x1="-12" y1="-7" x2="-12" y2="7"/>
    <path d="M -12 -4 C -12 2 12 2 12 -7"/>
  </g>
  <text x="1048" y="252" font-size="15" font-weight="700" fill="#1A1A1A">Routing</text>
  <text x="1048" y="270" font-size="11" fill="#6B7280">Score → 3 outcomes</text>
  <text x="1048" y="284" font-size="11" fill="#6B7280">thresholds 0.30 / 0.70</text>
  <rect x="1048" y="296" width="80" height="20" rx="10" fill="#F1F5F9"/>
  <text x="1088" y="310" text-anchor="middle" font-size="10" font-family="IBM Plex Mono, monospace" fill="#334155">engine.ts</text>
  <rect x="1134" y="296" width="84" height="20" rx="10" fill="#F1F5F9"/>
  <text x="1176" y="310" text-anchor="middle" font-size="10" font-family="IBM Plex Mono, monospace" fill="#334155">Supabase</text>

  <!-- Arrow from Routing to Outcomes stack -->
  <line x1="1236" y1="240" x2="1252" y2="240" stroke="#94A3B8" stroke-width="2" marker-end="url(#arrow)"/>

  <!-- ═══════════════════════════════════════════════════════════════════
       RIGHT SIDE: three outcomes stacked vertically (no messy curves)
       ═══════════════════════════════════════════════════════════════════ -->

  <!-- outcome stack label -->
  <text x="1375" y="136" text-anchor="middle" font-size="10" font-weight="700" fill="#9CA3AF" letter-spacing="1.5">ROUTING OUTCOMES</text>

  <!-- Outcome 1: AUTO-PAY -->
  <g filter="url(#softShadow)">
    <rect x="1260" y="150" width="230" height="64" rx="14" fill="url(#gGreen)"/>
  </g>
  <g transform="translate(1286, 182)" fill="none" stroke="#fff" stroke-width="2.2" stroke-linecap="round" stroke-linejoin="round">
    <circle cx="0" cy="0" r="12"/>
    <polyline points="-5,0 -1,4 6,-4"/>
  </g>
  <text x="1308" y="180" font-size="14" font-weight="800" fill="#fff">Auto-pay</text>
  <text x="1308" y="197" font-size="10" fill="rgba(255,255,255,0.88)">Razorpay UPI · trust +0.05</text>
  <text x="1478" y="197" text-anchor="end" font-size="10" font-family="IBM Plex Mono, monospace" fill="rgba(255,255,255,0.78)">&lt; 30%</text>

  <!-- Outcome 2: FLAG -->
  <g filter="url(#softShadow)">
    <rect x="1260" y="224" width="230" height="64" rx="14" fill="url(#gAmber)"/>
  </g>
  <g transform="translate(1286, 256)" fill="none" stroke="#fff" stroke-width="2.2" stroke-linecap="round" stroke-linejoin="round">
    <path d="M 0 -10 L 10 8 L -10 8 Z"/>
    <line x1="0" y1="-3" x2="0" y2="3"/>
    <circle cx="0" cy="6" r="1" fill="#fff" stroke="none"/>
  </g>
  <text x="1308" y="254" font-size="14" font-weight="800" fill="#fff">Flag</text>
  <text x="1308" y="271" font-size="10" fill="rgba(255,255,255,0.88)">Paid + is_flagged=true</text>
  <text x="1478" y="271" text-anchor="end" font-size="10" font-family="IBM Plex Mono, monospace" fill="rgba(255,255,255,0.78)">30–69%</text>

  <!-- Outcome 3: MANUAL REVIEW -->
  <g filter="url(#softShadow)">
    <rect x="1260" y="298" width="230" height="64" rx="14" fill="url(#gRed)"/>
  </g>
  <g transform="translate(1286, 330)" fill="none" stroke="#fff" stroke-width="2.2" stroke-linecap="round" stroke-linejoin="round">
    <path d="M 0 -10 L -10 -6 V 2 C -10 8 -5 12 0 14 C 5 12 10 8 10 2 V -6 Z"/>
    <line x1="0" y1="-4" x2="0" y2="2"/>
    <circle cx="0" cy="6" r="1" fill="#fff" stroke="none"/>
  </g>
  <text x="1308" y="328" font-size="14" font-weight="800" fill="#fff">Manual review</text>
  <text x="1308" y="345" font-size="10" fill="rgba(255,255,255,0.88)">Fraud Center · admin action</text>
  <text x="1478" y="345" text-anchor="end" font-size="10" font-family="IBM Plex Mono, monospace" fill="rgba(255,255,255,0.78)">≥ 70%</text>

  <!-- Sub-stem vertical connector from main arrow to three outcomes -->
  <line x1="1252" y1="182" x2="1252" y2="330" stroke="#94A3B8" stroke-width="1.5"/>
  <line x1="1252" y1="182" x2="1258" y2="182" stroke="#94A3B8" stroke-width="1.5"/>
  <line x1="1252" y1="256" x2="1258" y2="256" stroke="#94A3B8" stroke-width="1.5"/>
  <line x1="1252" y1="330" x2="1258" y2="330" stroke="#94A3B8" stroke-width="1.5"/>

  <!-- ═══════════════════════════════════════════════════════════════════
       BELOW SCORING: three signal cards feeding upward
       ═══════════════════════════════════════════════════════════════════ -->

  <!-- Connector arrows from signals up into Scoring Engine -->
  <path d="M 370 540 L 370 420 L 886 420 L 886 340" stroke="#8B5CF6" stroke-width="2" fill="none" opacity="0.5"/>
  <path d="M 620 540 L 620 420 L 886 420 L 886 340" stroke="#EC4899" stroke-width="2" fill="none" opacity="0.5"/>
  <path d="M 870 540 L 870 420 L 886 420 L 886 340" stroke="#3B82F6" stroke-width="2" fill="none" opacity="0.5"/>
  <!-- arrowhead at Scoring -->
  <polygon points="886,340 881,350 891,350" fill="#8B5CF6"/>

  <!-- heading -->
  <text x="620" y="406" text-anchor="middle" font-size="10" font-weight="700" fill="#9CA3AF" letter-spacing="1.5">
    THREE WEIGHTED SIGNALS  (sum = 1.0)
  </text>

  <!-- ───── Signal 1: TRUST / HISTORY ───── -->
  <g filter="url(#softShadow)">
    <rect x="260" y="540" width="240" height="230" rx="20" fill="#fff" stroke="#E8E8EA"/>
    <rect x="260" y="540" width="240" height="5" rx="2.5" fill="url(#gIndigo)"/>
  </g>
  <!-- icon tile -->
  <rect x="282" y="564" width="44" height="44" rx="12" fill="url(#gIndigo)"/>
  <g transform="translate(304, 586)" fill="none" stroke="#fff" stroke-width="2.2" stroke-linecap="round" stroke-linejoin="round">
    <circle cx="-3" cy="-3" r="6"/>
    <path d="M -11 11 C -11 5 5 5 5 11"/>
    <polyline points="6,-1 9,2 14,-3"/>
  </g>
  <!-- weight pill -->
  <rect x="420" y="572" width="58" height="26" rx="13" fill="url(#gIndigo)"/>
  <text x="449" y="590" text-anchor="middle" font-size="13" font-weight="800" fill="#fff">40%</text>
  <!-- title + blurb -->
  <text x="282" y="634" font-size="15" font-weight="700" fill="#1A1A1A">Prior history &amp; trust</text>
  <text x="282" y="656" font-size="11" fill="#6B7280">Strongest predictor.</text>
  <text x="282" y="670" font-size="11" fill="#6B7280">Repeat offenders escalate;</text>
  <text x="282" y="684" font-size="11" fill="#6B7280">tenure discounts severity.</text>
  <!-- tech section -->
  <line x1="282" y1="702" x2="478" y2="702" stroke="#F3F4F6"/>
  <text x="282" y="720" font-size="9" font-weight="700" fill="#9CA3AF" letter-spacing="1">STACK</text>
  <rect x="282" y="728" width="134" height="20" rx="10" fill="#EEF2FF"/>
  <text x="349" y="742" text-anchor="middle" font-size="10" font-family="IBM Plex Mono, monospace" fill="#4F46E5">profiles.trust_score</text>
  <rect x="282" y="752" width="118" height="18" rx="9" fill="#EEF2FF"/>
  <text x="341" y="765" text-anchor="middle" font-size="9.5" font-family="IBM Plex Mono, monospace" fill="#4F46E5">parametric_claims</text>

  <!-- ───── Signal 2: LOCATION ───── -->
  <g filter="url(#softShadow)">
    <rect x="510" y="540" width="240" height="230" rx="20" fill="#fff" stroke="#E8E8EA"/>
    <rect x="510" y="540" width="240" height="5" rx="2.5" fill="url(#gPink)"/>
  </g>
  <rect x="532" y="564" width="44" height="44" rx="12" fill="url(#gPink)"/>
  <g transform="translate(554, 586)" fill="none" stroke="#fff" stroke-width="2.2" stroke-linecap="round" stroke-linejoin="round">
    <path d="M 0 12 C 8 2 12 -4 12 -9 A 12 12 0 1 0 -12 -9 C -12 -4 -8 2 0 12 Z"/>
    <circle cx="0" cy="-8" r="4"/>
  </g>
  <rect x="670" y="572" width="58" height="26" rx="13" fill="url(#gPink)"/>
  <text x="699" y="590" text-anchor="middle" font-size="13" font-weight="800" fill="#fff">35%</text>
  <text x="532" y="634" font-size="15" font-weight="700" fill="#1A1A1A">Location integrity</text>
  <text x="532" y="656" font-size="11" fill="#6B7280">GPS vs IP mismatch.</text>
  <text x="532" y="670" font-size="11" fill="#6B7280">Impossible travel</text>
  <text x="532" y="684" font-size="11" fill="#6B7280">(&gt;50 km in &lt;30 min).</text>
  <line x1="532" y1="702" x2="728" y2="702" stroke="#F3F4F6"/>
  <text x="532" y="720" font-size="9" font-weight="700" fill="#9CA3AF" letter-spacing="1">STACK</text>
  <rect x="532" y="728" width="78" height="20" rx="10" fill="#FDF2F8"/>
  <text x="571" y="742" text-anchor="middle" font-size="10" font-family="IBM Plex Mono, monospace" fill="#BE185D">phone GPS</text>
  <rect x="616" y="728" width="84" height="20" rx="10" fill="#FDF2F8"/>
  <text x="658" y="742" text-anchor="middle" font-size="10" font-family="IBM Plex Mono, monospace" fill="#BE185D">ip-api.com</text>
  <rect x="532" y="752" width="78" height="18" rx="9" fill="#FDF2F8"/>
  <text x="571" y="765" text-anchor="middle" font-size="9.5" font-family="IBM Plex Mono, monospace" fill="#BE185D">haversine</text>
  <rect x="616" y="752" width="84" height="18" rx="9" fill="#FDF2F8"/>
  <text x="658" y="765" text-anchor="middle" font-size="9.5" font-family="IBM Plex Mono, monospace" fill="#BE185D">activity_logs</text>

  <!-- ───── Signal 3: CLUSTER ───── -->
  <g filter="url(#softShadow)">
    <rect x="760" y="540" width="240" height="230" rx="20" fill="#fff" stroke="#E8E8EA"/>
    <rect x="760" y="540" width="240" height="5" rx="2.5" fill="url(#gBlue)"/>
  </g>
  <rect x="782" y="564" width="44" height="44" rx="12" fill="url(#gBlue)"/>
  <g transform="translate(804, 586)" fill="none" stroke="#fff" stroke-width="2.2" stroke-linecap="round" stroke-linejoin="round">
    <circle cx="-5" cy="-4" r="4.5"/>
    <circle cx="6" cy="-4" r="4.5"/>
    <path d="M -13 10 C -13 4 -1 4 -1 10"/>
    <path d="M -1 10 C -1 4 14 4 14 10"/>
  </g>
  <rect x="920" y="572" width="58" height="26" rx="13" fill="url(#gBlue)"/>
  <text x="949" y="590" text-anchor="middle" font-size="13" font-weight="800" fill="#fff">25%</text>
  <text x="782" y="634" font-size="15" font-weight="700" fill="#1A1A1A">Ring / cluster</text>
  <text x="782" y="656" font-size="11" fill="#6B7280">≥10 claims / 10 min +</text>
  <text x="782" y="670" font-size="11" fill="#6B7280">shared devices, IPs,</text>
  <text x="782" y="684" font-size="11" fill="#6B7280">or single GPS spot.</text>
  <line x1="782" y1="702" x2="978" y2="702" stroke="#F3F4F6"/>
  <text x="782" y="720" font-size="9" font-weight="700" fill="#9CA3AF" letter-spacing="1">STACK</text>
  <rect x="782" y="728" width="86" height="20" rx="10" fill="#EFF6FF"/>
  <text x="825" y="742" text-anchor="middle" font-size="10" font-family="IBM Plex Mono, monospace" fill="#1D4ED8">SQL GROUP</text>
  <rect x="874" y="728" width="84" height="20" rx="10" fill="#EFF6FF"/>
  <text x="916" y="742" text-anchor="middle" font-size="10" font-family="IBM Plex Mono, monospace" fill="#1D4ED8">lat/lng σ</text>
  <rect x="782" y="752" width="140" height="18" rx="9" fill="#EFF6FF"/>
  <text x="852" y="765" text-anchor="middle" font-size="9.5" font-family="IBM Plex Mono, monospace" fill="#1D4ED8">fraud_cluster_signals</text>

  <!-- ═══════════════════════════════════════════════════════════════════
       BOTTOM: side effects + legend panel
       ═══════════════════════════════════════════════════════════════════ -->

  <g filter="url(#softShadow)">
    <rect x="40" y="810" width="1450" height="140" rx="18" fill="#fff" stroke="#E8E8EA"/>
  </g>

  <!-- Section A: Persistence -->
  <text x="64" y="838" font-size="10" font-weight="700" fill="#9CA3AF" letter-spacing="1.5">PERSISTENCE</text>
  <g transform="translate(78, 868)" fill="none" stroke="#64748B" stroke-width="2" stroke-linecap="round" stroke-linejoin="round">
    <ellipse cx="0" cy="-5" rx="12" ry="4"/>
    <path d="M -12 -5 V 5 C -12 8 12 8 12 5 V -5"/>
    <path d="M -12 0 C -12 3 12 3 12 0"/>
  </g>
  <text x="100" y="864" font-size="12" font-weight="600" fill="#1A1A1A">Supabase Postgres</text>
  <text x="100" y="880" font-size="10" font-family="IBM Plex Mono, monospace" fill="#6B7280">parametric_claims · fraud_signals · trust_score</text>
  <text x="100" y="896" font-size="10" font-family="IBM Plex Mono, monospace" fill="#6B7280">fraud_cluster_signals · driver_activity_logs</text>
  <text x="100" y="912" font-size="10" font-family="IBM Plex Mono, monospace" fill="#6B7280">vehicle_asset_locks</text>

  <line x1="420" y1="830" x2="420" y2="930" stroke="#F3F4F6"/>

  <!-- Section B: External APIs -->
  <text x="444" y="838" font-size="10" font-weight="700" fill="#9CA3AF" letter-spacing="1.5">EXTERNAL APIs</text>
  <!-- OpenWeatherMap -->
  <rect x="444" y="852" width="118" height="22" rx="11" fill="#EEF2FF"/>
  <text x="503" y="867" text-anchor="middle" font-size="10.5" font-family="IBM Plex Mono, monospace" fill="#4F46E5">OpenWeatherMap</text>
  <rect x="566" y="852" width="88" height="22" rx="11" fill="#EEF2FF"/>
  <text x="610" y="867" text-anchor="middle" font-size="10.5" font-family="IBM Plex Mono, monospace" fill="#4F46E5">Open-Meteo</text>
  <rect x="658" y="852" width="50" height="22" rx="11" fill="#EEF2FF"/>
  <text x="683" y="867" text-anchor="middle" font-size="10.5" font-family="IBM Plex Mono, monospace" fill="#4F46E5">WAQI</text>
  <rect x="712" y="852" width="88" height="22" rx="11" fill="#EEF2FF"/>
  <text x="756" y="867" text-anchor="middle" font-size="10.5" font-family="IBM Plex Mono, monospace" fill="#4F46E5">StatusGator</text>
  <rect x="444" y="880" width="80" height="22" rx="11" fill="#FDF2F8"/>
  <text x="484" y="895" text-anchor="middle" font-size="10.5" font-family="IBM Plex Mono, monospace" fill="#BE185D">ip-api.com</text>
  <rect x="528" y="880" width="72" height="22" rx="11" fill="#FDF2F8"/>
  <text x="564" y="895" text-anchor="middle" font-size="10.5" font-family="IBM Plex Mono, monospace" fill="#BE185D">NewsData</text>
  <rect x="604" y="880" width="100" height="22" rx="11" fill="#FDF2F8"/>
  <text x="654" y="895" text-anchor="middle" font-size="10.5" font-family="IBM Plex Mono, monospace" fill="#BE185D">OpenRouter LLM</text>
  <rect x="708" y="880" width="72" height="22" rx="11" fill="#ECFDF5"/>
  <text x="744" y="895" text-anchor="middle" font-size="10.5" font-family="IBM Plex Mono, monospace" fill="#047857">Razorpay</text>

  <line x1="820" y1="830" x2="820" y2="930" stroke="#F3F4F6"/>

  <!-- Section C: Runtime -->
  <text x="840" y="838" font-size="10" font-weight="700" fill="#9CA3AF" letter-spacing="1.5">RUNTIME</text>
  <text x="840" y="864" font-size="12" font-weight="600" fill="#1A1A1A">Next.js 16 · TypeScript</text>
  <text x="840" y="882" font-size="10" font-family="IBM Plex Mono, monospace" fill="#6B7280">app/api/cron/adjudicator · lib/fraud/*</text>
  <text x="840" y="898" font-size="10" font-family="IBM Plex Mono, monospace" fill="#6B7280">lib/claims/engine · scoring client &amp; server</text>

  <line x1="1140" y1="830" x2="1140" y2="930" stroke="#F3F4F6"/>

  <!-- Section D: Not counted -->
  <text x="1160" y="838" font-size="10" font-weight="700" fill="#9CA3AF" letter-spacing="1.5">NOT WEIGHTED AS FRAUD</text>
  <text x="1160" y="858" font-size="11" fill="#6B7280">Duplicate claim · Rapid claims</text>
  <text x="1160" y="874" font-size="11" fill="#6B7280">Weather-API mismatch</text>
  <text x="1160" y="896" font-size="10" font-style="italic" fill="#9CA3AF">(backend-health checks —</text>
  <text x="1160" y="910" font-size="10" font-style="italic" fill="#9CA3AF">drivers don&#8217;t control them)</text>
</svg>
